<?xml version="1.0" encoding="UTF-8"?>
<svg id="Capa_1" data-name="Capa 1" xmlns="http://www.w3.org/2000/svg" viewBox="0 0 728.61 728.61">
  <rect width="728.61" height="728.61" fill="#cede01"/>
  <g>
    <polygon points="180.65 256.43 180.65 278.03 223.85 278.03 223.85 299.63 245.45 299.63 245.45 256.43 180.65 256.43"/>
    <rect x="159.05" y="278.03" width="21.6" height="21.6"/>
    <rect x="223.85" y="170.03" width="21.6" height="21.6"/>
    <rect x="202.25" y="299.63" width="21.6" height="43.2"/>
    <polygon points="191.45 170.03 159.05 170.03 159.05 148.42 105.05 148.42 105.05 170.03 137.45 170.03 137.45 191.63 169.85 191.63 169.85 213.23 223.85 213.23 223.85 191.63 191.45 191.63 191.45 170.03"/>
    <rect x="51.05" y="353.63" width="21.6" height="21.6"/>
    <rect x="51.05" y="429.23" width="86.4" height="21.6"/>
    <rect x="331.85" y="407.63" width="21.6" height="21.6"/>
    <rect x="288.65" y="429.23" width="43.2" height="21.6"/>
    <rect x="353.46" y="386.03" width="21.6" height="21.6"/>
    <rect x="180.65" y="342.83" width="21.6" height="43.2"/>
    <rect x="159.05" y="386.03" width="21.6" height="21.6"/>
    <rect x="137.45" y="407.63" width="21.6" height="21.6"/>
    <rect x="29.45" y="375.23" width="21.6" height="54"/>
    <rect x="83.45" y="170.03" width="21.6" height="54"/>
    <rect x="288.65" y="191.63" width="21.6" height="21.6"/>
    <rect x="245.45" y="234.83" width="21.6" height="21.6"/>
    <rect x="245.45" y="299.63" width="43.2" height="21.6"/>
    <rect x="267.05" y="213.23" width="21.6" height="21.6"/>
    <polygon points="612.76 277.78 612.76 299.38 591.16 299.38 591.16 320.98 569.56 320.98 569.56 342.58 612.76 342.58 612.76 320.98 634.36 320.98 634.36 299.38 677.56 299.38 677.56 277.78 612.76 277.78"/>
    <rect x="677.56" y="299.38" width="21.6" height="43.2"/>
    <rect x="547.96" y="342.58" width="21.6" height="21.6"/>
    <rect x="591.16" y="385.78" width="21.6" height="21.6"/>
    <rect x="526.36" y="364.18" width="21.6" height="21.6"/>
    <polygon points="655.96 364.18 612.76 364.18 612.76 385.78 655.96 385.78 655.96 364.18 677.56 364.18 677.56 342.58 655.96 342.58 655.96 364.18"/>
    <rect x="396.75" y="299.38" width="21.6" height="21.6"/>
    <polygon points="375.15 536.98 396.75 536.98 396.75 515.38 418.35 515.38 418.35 472.18 439.95 472.18 439.95 429.23 461.55 429.23 461.55 385.78 483.15 385.78 483.15 342.58 504.76 342.58 504.76 299.38 526.36 299.38 526.36 277.78 418.35 277.78 418.35 299.38 483.15 299.38 483.15 342.58 461.55 342.58 461.55 364.18 439.95 364.18 439.95 407.38 418.35 407.38 418.35 450.58 396.75 450.58 396.75 492.95 375.15 492.95 375.15 536.98 353.55 536.98 353.55 558.58 331.95 558.58 331.95 580.18 418.35 580.18 418.35 558.58 375.15 558.58 375.15 536.98"/>
    <rect x="504.76" y="385.78" width="21.6" height="21.6"/>
    <polyline points="288.65 299.63 310.25 299.63 310.25 321.23 288.65 321.23 288.65 386.03 267.05 386.03 267.05 429.23 288.65 429.23 288.65 407.63 310.25 407.63 310.25 342.83 331.85 342.83 331.85 320.98 353.45 320.98 353.45 342.58 396.75 342.58 396.75 320.98 353.46 320.98 353.46 299.38 331.95 299.38 331.95 277.78 331.85 277.78 331.85 256.43 353.46 256.43 353.46 213.23 375.06 213.23 375.06 148.42 245.45 148.42 245.45 170.03 310.25 170.03 310.25 191.63 331.85 191.63 331.85 170.03 353.46 170.03 353.46 191.63 331.85 191.63 331.85 213.23 310.25 213.23 310.25 277.78 288.65 277.78 288.65 299.63"/>
    <polygon points="439.95 536.98 418.35 536.98 418.35 558.58 439.95 558.58 439.95 536.98 461.55 536.98 461.55 493.78 439.95 493.78 439.95 536.98"/>
    <rect x="461.55" y="450.58" width="21.6" height="43.2"/>
    <rect x="483.15" y="407.38" width="21.6" height="43.2"/>
  </g>
</svg>