<?xml version="1.0" encoding="UTF-8"?>
<svg id="Capa_1" data-name="Capa 1" xmlns="http://www.w3.org/2000/svg" viewBox="0 0 1927.77 544.27">
  <g>
    <rect x=".98" y="-.65" width="1925.82" height="550.2" fill="#ececec"/>
    <rect x=".98" y="-.73" width="341.06" height="220.31" fill="#6fc5f5"/>
    <rect x="777.06" y="259.65" width="784.88" height="286.84" fill="#c1aae2"/>
    <rect x="1540.49" y="259.65" width="21.5" height="21.6" fill="#ececec" stroke="#ececec" stroke-miterlimit="10" stroke-width=".5"/>
    <rect x="1518.89" y="281.25" width="21.6" height="21.6" fill="#ececec" stroke="#ececec" stroke-miterlimit="10" stroke-width=".5"/>
    <rect x="1497.29" y="281.25" width="21.6" height="21.6" fill="#ececec" stroke="#ececec" stroke-miterlimit="10" stroke-width=".5"/>
    <rect x="1264.9" y="457.84" width="21.6" height="21.6" fill="#ececec" stroke="#ececec" stroke-miterlimit="10" stroke-width=".25"/>
    <rect x="1264.9" y="479.44" width="21.6" height="21.6" fill="#ececec" stroke="#ececec" stroke-miterlimit="10" stroke-width=".25"/>
    <rect x="1320.8" y="364.4" width="21.6" height="21.6" fill="#ececec"/>
    <rect x="1243.3" y="479.44" width="21.6" height="21.6" fill="#ececec" stroke="#ececec" stroke-miterlimit="10" stroke-width=".25"/>
    <rect x="1428.35" y="188.08" width="21.6" height="21.6" fill="#c1aae2"/>
    <rect x="443.9" y="430.86" width="21.6" height="21.6" fill="#c1aae2"/>
    <rect x="1663.88" y="144.88" width="21.6" height="21.6" fill="#c1aae2" stroke="#c1aae2" stroke-miterlimit="10" stroke-width=".25"/>
    <rect x="189.4" y="255.51" width="21.6" height="21.6" fill="#6fc5f5"/>
    <rect x="189.4" y="277.11" width="21.6" height="21.6" fill="#6fc5f5"/>
    <rect x="1663.88" y="166.48" width="21.6" height="21.6" fill="#c1aae2" stroke="#c1aae2" stroke-miterlimit="10" stroke-width=".25"/>
    <rect x="1685.48" y="166.48" width="21.6" height="21.6" fill="#c1aae2" stroke="#c1aae2" stroke-miterlimit="10" stroke-width=".25"/>
    <rect x="1707.08" y="166.48" width="21.6" height="21.6" fill="#c1aae2" stroke="#c1aae2" stroke-miterlimit="10" stroke-width=".25"/>
    <rect x="1728.68" y="188.08" width="21.6" height="21.6" fill="#c1aae2" stroke="#c1aae2" stroke-miterlimit="10" stroke-width=".25"/>
    <rect x="1406.75" y="166.48" width="21.6" height="21.6" fill="#c1aae2"/>
    <rect x="838.38" y="522.67" width="21.6" height="21.6" fill="#ececec"/>
    <rect x="816.78" y="501.07" width="21.6" height="21.6" fill="#ececec"/>
    <rect x="75.1" y="60.09" width="21.6" height="21.6" fill="#ececec"/>
    <rect x="96.7" y="81.69" width="21.6" height="21.6" fill="#ececec"/>
  </g>
  <g>
    <polygon points="1320.8 386 1320.8 188.08 1125.5 188.08 1125.5 160.11 973.84 160.11 973.84 52.47 592.99 52.47 592.99 204.14 671.33 204.14 671.33 276.5 542.55 276.5 542.55 428.17 805.76 428.17 805.76 405.59 828.16 405.59 828.16 428.17 859.98 428.17 859.98 557.27 1119.42 557.27 1119.42 405.59 1108.22 405.59 1108.22 386 1320.8 386" fill="#cede01"/>
    <g>
      <polygon points="751.98 198.88 751.98 220.48 795.18 220.48 795.18 242.09 816.78 242.09 816.78 198.88 751.98 198.88"/>
      <rect x="730.38" y="220.48" width="21.6" height="21.6"/>
      <rect x="795.18" y="112.48" width="21.6" height="21.6"/>
      <rect x="773.58" y="242.09" width="21.6" height="43.2"/>
      <polygon points="762.78 112.48 730.38 112.48 730.38 90.88 676.38 90.88 676.38 112.48 708.78 112.48 708.78 134.08 741.18 134.08 741.18 155.68 795.18 155.68 795.18 134.08 762.78 134.08 762.78 112.48"/>
      <rect x="622.38" y="296.09" width="21.6" height="21.6"/>
      <rect x="622.38" y="371.69" width="86.4" height="21.6"/>
      <rect x="903.18" y="350.09" width="21.6" height="21.6"/>
      <rect x="859.98" y="371.69" width="43.2" height="21.6"/>
      <rect x="924.79" y="328.49" width="21.6" height="21.6"/>
      <rect x="751.98" y="285.29" width="21.6" height="43.2"/>
      <rect x="730.38" y="328.49" width="21.6" height="21.6"/>
      <rect x="708.78" y="350.09" width="21.6" height="21.6"/>
      <rect x="600.78" y="317.69" width="21.6" height="54"/>
      <rect x="654.78" y="112.48" width="21.6" height="54"/>
      <rect x="859.98" y="134.08" width="21.6" height="21.6"/>
      <rect x="816.78" y="177.28" width="21.6" height="21.6"/>
      <rect x="816.78" y="242.09" width="43.2" height="21.6"/>
      <rect x="838.38" y="155.68" width="21.6" height="21.6"/>
      <polygon points="1184.09 220.24 1184.09 241.84 1162.49 241.84 1162.49 263.44 1140.89 263.44 1140.89 285.04 1184.09 285.04 1184.09 263.44 1205.69 263.44 1205.69 241.84 1248.89 241.84 1248.89 220.24 1184.09 220.24"/>
      <rect x="1248.89" y="241.84" width="21.6" height="43.2"/>
      <rect x="1119.29" y="285.04" width="21.6" height="21.6"/>
      <rect x="1162.49" y="328.24" width="21.6" height="21.6"/>
      <rect x="1097.69" y="306.64" width="21.6" height="21.6"/>
      <polygon points="1227.29 306.64 1184.09 306.64 1184.09 328.24 1227.29 328.24 1227.29 306.64 1248.89 306.64 1248.89 285.04 1227.29 285.04 1227.29 306.64"/>
      <rect x="968.08" y="241.84" width="21.6" height="21.6"/>
      <polygon points="946.48 479.44 968.08 479.44 968.08 457.84 989.69 457.84 989.69 414.64 1011.29 414.64 1011.29 371.69 1032.89 371.69 1032.89 328.24 1054.49 328.24 1054.49 285.04 1076.09 285.04 1076.09 241.84 1097.69 241.84 1097.69 220.24 989.69 220.24 989.69 241.84 1054.49 241.84 1054.49 285.04 1032.89 285.04 1032.89 306.64 1011.29 306.64 1011.29 349.84 989.69 349.84 989.69 393.04 968.08 393.04 968.08 435.41 946.48 435.41 946.48 479.44 924.88 479.44 924.88 501.04 903.28 501.04 903.28 522.64 989.69 522.64 989.69 501.04 946.48 501.04 946.48 479.44"/>
      <rect x="1076.09" y="328.24" width="21.6" height="21.6"/>
      <polyline points="859.98 242.09 881.58 242.09 881.58 263.69 859.98 263.69 859.98 328.49 838.38 328.49 838.38 371.69 859.98 371.69 859.98 350.09 881.58 350.09 881.58 285.29 903.18 285.29 903.18 263.44 924.79 263.44 924.79 285.04 968.08 285.04 968.08 263.44 924.79 263.44 924.79 241.84 903.28 241.84 903.28 220.24 903.18 220.24 903.18 198.88 924.79 198.88 924.79 155.68 946.39 155.68 946.39 90.88 816.78 90.88 816.78 112.48 881.58 112.48 881.58 134.08 903.18 134.08 903.18 112.48 924.79 112.48 924.79 134.08 903.18 134.08 903.18 155.68 881.58 155.68 881.58 220.24 859.98 220.24 859.98 242.09"/>
      <polygon points="1011.28 479.44 989.68 479.44 989.69 501.04 1011.29 501.04 1011.29 479.44 1032.89 479.44 1032.89 436.24 1011.29 436.24 1011.28 479.44"/>
      <rect x="1032.89" y="393.04" width="21.6" height="43.2"/>
      <rect x="1054.49" y="349.84" width="21.6" height="43.2"/>
    </g>
  </g>
</svg>