<?xml version="1.0" encoding="UTF-8"?>
<svg id="Capa_1" data-name="Capa 1" xmlns="http://www.w3.org/2000/svg" viewBox="0 0 451.52 376.71">
  <g>
    <polygon points="252.37 66.39 252.37 0 232.04 0 232.04 83.88 252.37 83.88 252.37 104.21 272.7 104.21 272.7 66.39 252.37 66.39" fill="#cede01"/>
    <polygon points="313.35 146.41 313.35 128.72 293.03 128.72 293.03 104.21 272.7 104.21 272.7 147.18 293.03 147.18 293.03 166.74 313.35 166.74 330.01 166.74 330.01 146.41 313.35 146.41" fill="#cede01"/>
    <rect x="293.09" y="207.39" width="20.33" height="20.33" fill="#cede01"/>
    <rect x="272.76" y="227.72" width="20.33" height="20.33" fill="#cede01"/>
    <polygon points="252.44 292.82 252.37 292.82 232.11 292.82 232.04 292.82 232.04 248.05 211.72 248.05 211.72 314.57 232.04 314.57 232.04 376.71 232.11 376.71 252.37 376.71 252.44 376.71 252.44 314.57 272.76 314.57 272.76 248.05 252.44 248.05 252.44 292.82" fill="#cede01"/>
    <polygon points="330.01 166.74 330.01 187.07 313.42 187.07 313.42 207.39 353.24 207.39 353.24 187.07 396.79 187.07 396.79 166.74 330.01 166.74" fill="#cede01"/>
    <polygon points="191.45 166.74 191.45 147.18 211.71 147.18 211.78 147.18 211.78 125.57 232.04 125.57 232.04 66.39 211.71 66.39 211.71 104.21 191.45 104.21 191.39 104.21 191.39 128.72 171.12 128.72 171.12 146.41 154.46 146.41 154.46 166.74 171.12 166.74 191.45 166.74" fill="#cede01"/>
    <rect x="171.06" y="207.39" width="20.33" height="20.33" fill="#cede01"/>
    <rect x="191.39" y="227.72" width="20.33" height="20.33" fill="#cede01"/>
    <polygon points="154.46 187.07 154.46 166.74 87.69 166.74 87.69 187.07 131.24 187.07 131.24 207.39 171.06 207.39 171.06 187.07 154.46 187.07" fill="#cede01"/>
  </g>
  <rect x="21.6" y="283.32" width="21.6" height="21.6" fill="#cede01"/>
  <rect x="429.92" y="337.32" width="21.6" height="21.6" fill="#cede01"/>
  <rect x="429.92" y="315.72" width="21.6" height="21.6" fill="#cede01"/>
  <rect y="304.92" width="21.6" height="21.6" fill="#cede01"/>
  <rect x="180.59" y="30.51" width="21.6" height="21.6" fill="#cede01"/>
</svg>